<?xml version="1.0" encoding="UTF-8"?>
<svg id="Layer_2" data-name="Layer 2" xmlns="http://www.w3.org/2000/svg" viewBox="0 0 554.49 530.47">
  <defs>
    <style>
      .cls-1, .cls-2 {
        fill: #fff;
      }

      .cls-3 {
        letter-spacing: 0em;
      }

      .cls-2 {
        font-family: ChaletNewYork, 'Chalet NewYork';
        font-size: 78.06px;
      }

      .cls-4 {
        letter-spacing: 0em;
      }

      .cls-5 {
        letter-spacing: .01em;
      }
    </style>
  </defs>
  <g id="CMYK">
    <text class="cls-2" transform="translate(0 510.8)"><tspan class="cls-3" x="0" y="0">Clara </tspan><tspan class="cls-4" x="243.87" y="0">V</tspan><tspan class="cls-5" x="291.02" y="0">isconti</tspan></text>
    <g>
      <path class="cls-1" d="M306.42,191.14c-18.19-12.38-98.56-56.39-161.54-186.31-5.18-10.69-25.03-6.06-25.33,38.69-.42,63.83,115.98,143.93,165.26,158.16,6.48-3.1,21.75-10.45,21.61-10.54Z"/>
      <path class="cls-1" d="M133.65,104.51c-4.45-5.43-14.14-3.89-14.33,7.12-.16,8.96,1.02,25.57,11.27,40.18,38.54,54.94,113.64,72.14,123.32,72.34,5.35-4.42,14.48-11.17,19.37-14.23-7.01-4.23-80-32.52-139.63-105.41Z"/>
      <path class="cls-1" d="M245.67,232.52c-51.25-11.2-76.16-29.52-105.67-55.21-7.49-6.51-18.97.13-6.33,30.57,12.51,30.1,71.02,38.34,99.08,38.34,3.56-4.21,9.41-10.26,12.91-13.7Z"/>
      <path class="cls-1" d="M154.63,237.53c-5.85-2.31-8.83,6.46,1.32,17.79,20.58,22.99,43.48,19.64,58.63,15.15,4.28-6.97,7.92-11.48,12.25-17.13-28.06,1.05-44.8-5.01-72.2-15.81Z"/>
      <path class="cls-1" d="M205.46,312.84c-10.87,14.1-33.58,53.06-115.61,99.85-7.58,4.32-3.61,17.97,29.24,17.26,29.31-.63,80.99-53.49,102.82-104.97-8.22-4.51-16.37-12.24-16.45-12.14Z"/>
      <path class="cls-1" d="M165.63,416.06c-9.09,8.56.63,12.78,5.94,11.99,1.38-.2,17.39-1.33,28.13-10.67,37.2-32.37,44.9-75.7,46.33-83.01-5.88-2.22-12.27-3.65-16.44-6.26-2.86,5.28-14.9,41.74-63.96,87.95Z"/>
      <path class="cls-1" d="M253.43,335.74c-8.61,38.63-18.25,52.25-36.1,74.77-4.52,5.71.73,13.89,22.64,3.6,22.21-10.43,29.29-54.27,27.85-74.89-4.31-.65-11-2.3-14.39-3.48Z"/>
      <path class="cls-1" d="M342.73,304.84s26-19.5,31.95-62.52c5.76-41.64,26.24-47.82,35.68-53.4,14.55-8.6,58.61-.02,58.61-.02,0,0-12.52-9.59-55.32-15.55,0,0-4.64-30.51-41.84-30.51,0,0-32.56-.75-38.28,33.23,0,0-2.89,13.72-16.26,20.95-13.36,7.22-76.09,25.05-108.99,107.55,0,0,64.54,58.71,134.46.26Z"/>
    </g>
  </g>
  <g id="CMYK_copy" data-name="CMYK copy">
    <text class="cls-2" transform="translate(0 510.8)"><tspan class="cls-3" x="0" y="0">Clara </tspan><tspan class="cls-4" x="243.87" y="0">V</tspan><tspan class="cls-5" x="291.02" y="0">isconti</tspan></text>
    <g>
      <path class="cls-1" d="M306.42,191.14c-18.19-12.38-98.56-56.39-161.54-186.31-5.18-10.69-25.03-6.06-25.33,38.69-.42,63.83,115.98,143.93,165.26,158.16,6.48-3.1,21.75-10.45,21.61-10.54Z"/>
      <path class="cls-1" d="M133.65,104.51c-4.45-5.43-14.14-3.89-14.33,7.12-.16,8.96,1.02,25.57,11.27,40.18,38.54,54.94,113.64,72.14,123.32,72.34,5.35-4.42,14.48-11.17,19.37-14.23-7.01-4.23-80-32.52-139.63-105.41Z"/>
      <path class="cls-1" d="M245.67,232.52c-51.25-11.2-76.16-29.52-105.67-55.21-7.49-6.51-18.97.13-6.33,30.57,12.51,30.1,71.02,38.34,99.08,38.34,3.56-4.21,9.41-10.26,12.91-13.7Z"/>
      <path class="cls-1" d="M154.63,237.53c-5.85-2.31-8.83,6.46,1.32,17.79,20.58,22.99,43.48,19.64,58.63,15.15,4.28-6.97,7.92-11.48,12.25-17.13-28.06,1.05-44.8-5.01-72.2-15.81Z"/>
      <path class="cls-1" d="M205.46,312.84c-10.87,14.1-33.58,53.06-115.61,99.85-7.58,4.32-3.61,17.97,29.24,17.26,29.31-.63,80.99-53.49,102.82-104.97-8.22-4.51-16.37-12.24-16.45-12.14Z"/>
      <path class="cls-1" d="M165.63,416.06c-9.09,8.56.63,12.78,5.94,11.99,1.38-.2,17.39-1.33,28.13-10.67,37.2-32.37,44.9-75.7,46.33-83.01-5.88-2.22-12.27-3.65-16.44-6.26-2.86,5.28-14.9,41.74-63.96,87.95Z"/>
      <path class="cls-1" d="M253.43,335.74c-8.61,38.63-18.25,52.25-36.1,74.77-4.52,5.71.73,13.89,22.64,3.6,22.21-10.43,29.29-54.27,27.85-74.89-4.31-.65-11-2.3-14.39-3.48Z"/>
      <path class="cls-1" d="M342.73,304.84s26-19.5,31.95-62.52c5.76-41.64,26.24-47.82,35.68-53.4,14.55-8.6,58.61-.02,58.61-.02,0,0-12.52-9.59-55.32-15.55,0,0-4.64-30.51-41.84-30.51,0,0-32.56-.75-38.28,33.23,0,0-2.89,13.72-16.26,20.95-13.36,7.22-76.09,25.05-108.99,107.55,0,0,64.54,58.71,134.46.26Z"/>
    </g>
  </g>
</svg>